# xmcd CD database file
#
# Track frame offsets:
#	150
#	12950
#	26378
#	40002
#	53129
#	66014
#	77812
#	100025
#	139868
#	155085
#	172613
#	195498
#	223149
#	237785
#	256004
#
# Disc length: 3729 seconds
#
# Revision: 1
# Processed by: cddbd v1.5.2PL0 Copyright (c) Steve Scherf et al.
# Submitted via: CDex 1.70beta2
#
DISCID=b70e8f0f
DTITLE=Various Artist - Jazz Roads CD370 - Bebop - The Boppers In Europe Vol.1 (1947-48)
DYEAR=1900
DGENRE=Jazz
TTITLE0=Chubby Jackson - Crown Pilots
TTITLE1=Chubby Jackson - Lemon Drop
TTITLE2=Chubby Jackson - Begin The Beguine
TTITLE3=Chubby Jackson - Crying Sands
TTITLE4=Chubby Jackson - Boomsie
TTITLE5=Chubby Jackson - Dee Dee's Dance
TTITLE6=Dizzy Gillespie - Oop Pop A Da
TTITLE7=Dizzy Gillespie - 'Round Midnight
TTITLE8=Dizzy Gillespie - Algo Bueno
TTITLE9=Dizzy Gillespie - I Can't Get Started
TTITLE10=Dizzy Gillespie - Ool Ya Koo
TTITLE11=Dizzy Gillespie - Afro Cubano Suite
TTITLE12=Dizzy Gillespie - Things To Come
TTITLE13=Dizzy Gillespie - Two Bass Hit
TTITLE14=Dizzy Gillespie - Good Bait
EXTD=
EXTT0=
EXTT1=
EXTT2=
EXTT3=
EXTT4=
EXTT5=
EXTT6=
EXTT7=
EXTT8=
EXTT9=
EXTT10=
EXTT11=
EXTT12=
EXTT13=
EXTT14=
PLAYORDER=
